<?xml version="1.0" standalone="no"?><!DOCTYPE svg PUBLIC "-//W3C//DTD SVG 1.1//EN" "http://www.w3.org/Graphics/SVG/1.1/DTD/svg11.dtd"><svg t="1566185707162" class="icon" viewBox="0 0 1024 1024" version="1.1" xmlns="http://www.w3.org/2000/svg" p-id="13257" xmlns:xlink="http://www.w3.org/1999/xlink" width="32" height="32"><defs><style type="text/css"></style></defs><path d="M538.99264 374.00576L512 242.40128l-25.00608 131.19488a140.84096 140.84096 0 1 0 51.99872 0.4096z" fill="#118EEA" p-id="13258"></path><path d="M512 0a512 512 0 1 0 512 512A512 512 0 0 0 512 0z m316.80512 828.80512l-199.29088-199.39328a166.6048 166.6048 0 0 1-74.40384 43.008l72.99072 272.50688a453.12 453.12 0 0 1-231.99744 0l72.99072-272.50688a164.7616 164.7616 0 0 1-74.40384-43.008l-199.49568 199.39328a448.26624 448.26624 0 0 1-116.10112-200.704l272.384-72.99072a167.15776 167.15776 0 0 1 0-86.016l-272.384-72.99072a442.73664 442.73664 0 0 1 20.09088-58.40896 447.81568 447.81568 0 0 1 96.01024-142.49984l199.29088 199.29088a166.6048 166.6048 0 0 1 74.40384-43.008l-72.9088-272.384a453.12 453.12 0 0 1 231.99744 0L555.008 351.49824a165.6832 165.6832 0 0 1 74.40384 43.008l199.29088-199.39328a448.26624 448.26624 0 0 1 116.10112 200.704L672.29696 468.992a167.17824 167.17824 0 0 1 0 86.016l272.50688 72.99072a449.69984 449.69984 0 0 1-115.99872 200.9088z" fill="#118EEA" p-id="13259" data-spm-anchor-id="a313x.7781069.0.i0" class="selected"></path></svg>